<svg xmlns="http://www.w3.org/2000/svg" xmlns:xlink="http://www.w3.org/1999/xlink" width="500" zoomAndPan="magnify" viewBox="0 0 375 374.999991" height="500" preserveAspectRatio="xMidYMid meet" version="1.0"><defs><clipPath id="deac0f9b2d"><path d="M 30.078125 84.144531 L 344.800781 84.144531 L 344.800781 260 L 30.078125 260 Z M 30.078125 84.144531 " clip-rule="nonzero"/></clipPath><clipPath id="2dd3754e25"><path d="M 48.371094 212.132812 C 56.15625 223.9375 62.027344 235.519531 65.300781 248.234375 C 66.144531 251.542969 68.449219 255.921875 65.464844 258.289062 C 62.15625 260.882812 57.9375 257.996094 54.695312 256.179688 C 29.914062 242.492188 29.492188 212.621094 30.984375 187.773438 C 31.179688 182.261719 33.222656 180.214844 38.769531 181.285156 C 61.441406 185.570312 81.292969 193.546875 88.980469 218.164062 C 90.957031 224.492188 95.042969 227.570312 101.53125 224.589844 C 108.019531 221.605469 108.050781 216.382812 105.066406 210.707031 C 93.519531 188.683594 101.402344 167.859375 109.121094 147.066406 L 113.304688 144.050781 C 129.976562 163.058594 144.605469 179.339844 142.59375 203.601562 C 142.269531 207.6875 143.699219 211.515625 147.785156 213.234375 C 155.40625 216.902344 165.136719 208.597656 160.660156 200.78125 C 142.628906 163.21875 165.558594 120.210938 185.894531 88.652344 C 187.839844 85.667969 189.789062 81.808594 193.519531 87.289062 C 208.730469 109.734375 221.347656 133.378906 225.5625 160.59375 C 227.574219 173.632812 226.535156 186.476562 220.601562 198.574219 C 218.363281 203.148438 217 207.851562 221.21875 212.003906 C 224.007812 214.761719 227.703125 215.085938 231.207031 213.753906 C 236.882812 211.582031 236.980469 206.683594 236.785156 201.589844 C 235.847656 177.914062 249.859375 161.761719 264.808594 146.09375 C 268.085938 142.65625 269.839844 145.023438 270.972656 148.203125 C 278.402344 169.511719 285.699219 190.824219 273.242188 212.847656 C 270.714844 217.289062 271.167969 221.605469 275.351562 225.042969 C 280.769531 229.484375 284.078125 228.285156 285.503906 221.34375 C 290.078125 199.222656 316.542969 179.144531 338.601562 180.898438 L 343.042969 181.675781 C 345.542969 207.300781 346.546875 230.167969 329.648438 248.847656 C 323.875 254.070312 316.578125 261.660156 309.929688 257.605469 C 304.804688 254.492188 310.640625 245.25 312.71875 239.023438 C 315.894531 229.484375 320.824219 220.695312 325.140625 211.355469 C 314.597656 215.765625 308.207031 224.523438 302.175781 233.636719 C 295.363281 247.875 289.429688 257.316406 272.171875 251.25 C 217.78125 233.3125 160.53125 232.339844 105.976562 250.339844 C 88.039062 255.726562 82.425781 253.457031 74.125 236.816406 C 70.425781 229.421875 65.464844 223.191406 59.429688 217.679688 C 56.578125 215.050781 53.625 212.878906 48.304688 212.101562 " clip-rule="nonzero"/></clipPath><clipPath id="010c66d3a1"><path d="M 89.671875 252 L 285.207031 252 L 285.207031 290.855469 L 89.671875 290.855469 Z M 89.671875 252 " clip-rule="nonzero"/></clipPath><clipPath id="0e82510dcc"><path d="M 192.414062 252.222656 C 191.085938 252.222656 189.753906 252.222656 188.457031 252.253906 C 187.160156 252.222656 185.894531 252.222656 184.628906 252.222656 C 154.691406 252.222656 126.703125 256.765625 98.613281 266.203125 C 91.21875 268.828125 88.199219 274.085938 90.375 282.324219 C 92.027344 288.582031 95.921875 290.464844 100.558594 290.464844 C 106.398438 290.464844 113.371094 287.449219 118.59375 286.34375 C 140.8125 280.246094 163.675781 277.296875 186.542969 277.296875 C 213.433594 277.296875 240.289062 281.382812 266.171875 289.230469 C 268.3125 289.847656 270.324219 290.105469 272.207031 290.105469 C 279.570312 290.105469 284.757812 285.761719 285.050781 278.753906 C 285.4375 270.191406 279.472656 267.011719 272.5625 264.9375 C 246.09375 256.957031 219.140625 252.191406 192.414062 252.191406 Z M 192.414062 252.222656 " clip-rule="nonzero"/></clipPath><clipPath id="61805bfa65"><path d="M 293 144 L 316.867188 144 L 316.867188 180.980469 L 293 180.980469 Z M 293 144 " clip-rule="nonzero"/></clipPath><clipPath id="0dfd2b8522"><path d="M 316.480469 155.726562 C 316.285156 164.617188 315.214844 171.847656 308.566406 176.84375 C 301.171875 183.589844 294.164062 179.179688 293.546875 169.871094 C 292.898438 162.085938 303.277344 147.199219 310.769531 144.570312 L 315.050781 144.828125 C 316.027344 150.570312 316.253906 153.78125 316.480469 155.726562 " clip-rule="nonzero"/></clipPath><clipPath id="172a6f735e"><path d="M 62.667969 143.738281 L 85.945312 143.738281 L 85.945312 180.980469 L 62.667969 180.980469 Z M 62.667969 143.738281 " clip-rule="nonzero"/></clipPath><clipPath id="83e2080850"><path d="M 62.933594 155.46875 C 64.296875 151.769531 61.894531 145.769531 65.789062 144.246094 C 69.484375 142.785156 72.792969 147.75 75.746094 150.507812 C 81.777344 156.117188 86.804688 162.441406 85.574219 171.425781 C 84.375 180.152344 78.277344 182.585938 71.171875 177.328125 C 63.777344 171.878906 63.484375 163.738281 62.933594 155.5 " clip-rule="nonzero"/></clipPath><clipPath id="b0c07703d4"><path d="M 130.640625 119.527344 L 145 119.527344 L 145 143.738281 L 130.640625 143.738281 Z M 130.640625 119.527344 " clip-rule="nonzero"/></clipPath><clipPath id="608e2f241a"><path d="M 144.863281 133.800781 C 143.925781 138.277344 143.535156 143.597656 138.183594 143.144531 C 132.476562 142.65625 130.660156 137.273438 130.851562 132.210938 C 131.015625 127.574219 131.730469 119.53125 135.523438 119.917969 C 141.785156 120.566406 143.015625 128.351562 144.898438 133.835938 " clip-rule="nonzero"/></clipPath><clipPath id="3ab8306a47"><path d="M 234 119.527344 L 248.894531 119.527344 L 248.894531 143.738281 L 234 143.738281 Z M 234 119.527344 " clip-rule="nonzero"/></clipPath><clipPath id="5bd037e03b"><path d="M 234.613281 134.222656 C 236.074219 128.15625 237.628906 120.375 243.921875 119.824219 C 248.074219 119.464844 248.300781 127.507812 248.527344 132.179688 C 248.789062 137.371094 247.035156 142.625 241.261719 143.175781 C 235.714844 143.695312 235.359375 138.40625 234.582031 134.222656 " clip-rule="nonzero"/></clipPath></defs><g clip-path="url(#deac0f9b2d)"><g clip-path="url(#2dd3754e25)"><path fill="#7a00e4" d="M 14.25 68.316406 L 360.628906 68.316406 L 360.628906 306.683594 L 14.25 306.683594 Z M 14.25 68.316406 " fill-opacity="1" fill-rule="nonzero"/></g></g><g clip-path="url(#010c66d3a1)"><g clip-path="url(#0e82510dcc)"><path fill="#7a00e4" d="M 14.25 68.316406 L 360.628906 68.316406 L 360.628906 306.683594 L 14.25 306.683594 Z M 14.25 68.316406 " fill-opacity="1" fill-rule="nonzero"/></g></g><g clip-path="url(#61805bfa65)"><g clip-path="url(#0dfd2b8522)"><path fill="#7a00e4" d="M 14.25 68.316406 L 360.628906 68.316406 L 360.628906 306.683594 L 14.25 306.683594 Z M 14.25 68.316406 " fill-opacity="1" fill-rule="nonzero"/></g></g><g clip-path="url(#172a6f735e)"><g clip-path="url(#83e2080850)"><path fill="#7a00e4" d="M 14.25 68.316406 L 360.628906 68.316406 L 360.628906 306.683594 L 14.25 306.683594 Z M 14.25 68.316406 " fill-opacity="1" fill-rule="nonzero"/></g></g><g clip-path="url(#b0c07703d4)"><g clip-path="url(#608e2f241a)"><path fill="#7a00e4" d="M 14.25 68.316406 L 360.628906 68.316406 L 360.628906 306.683594 L 14.25 306.683594 Z M 14.25 68.316406 " fill-opacity="1" fill-rule="nonzero"/></g></g><g clip-path="url(#3ab8306a47)"><g clip-path="url(#5bd037e03b)"><path fill="#7a00e4" d="M 14.25 68.316406 L 360.628906 68.316406 L 360.628906 306.683594 L 14.25 306.683594 Z M 14.25 68.316406 " fill-opacity="1" fill-rule="nonzero"/></g></g></svg>