<svg xmlns="http://www.w3.org/2000/svg" xmlns:xlink="http://www.w3.org/1999/xlink" width="286" zoomAndPan="magnify" viewBox="0 0 214.5 61.499998" height="82" preserveAspectRatio="xMidYMid meet" version="1.0"><defs><g/><clipPath id="74cea9ef2b"><path d="M 3.84375 9.574219 L 67.976562 9.574219 L 67.976562 45.4375 L 3.84375 45.4375 Z M 3.84375 9.574219 " clip-rule="nonzero"/></clipPath><clipPath id="05ae660bda"><path d="M 7.570312 35.65625 C 9.15625 38.0625 10.351562 40.421875 11.019531 43.011719 C 11.191406 43.6875 11.660156 44.578125 11.054688 45.0625 C 10.378906 45.589844 9.519531 45 8.859375 44.632812 C 3.808594 41.84375 3.722656 35.753906 4.027344 30.691406 C 4.066406 29.566406 4.484375 29.152344 5.613281 29.371094 C 10.234375 30.242188 14.277344 31.867188 15.84375 36.886719 C 16.25 38.175781 17.082031 38.800781 18.402344 38.195312 C 19.726562 37.585938 19.730469 36.523438 19.125 35.363281 C 16.769531 30.875 18.378906 26.632812 19.949219 22.398438 L 20.804688 21.78125 C 24.199219 25.65625 27.179688 28.972656 26.769531 33.917969 C 26.707031 34.75 26.996094 35.53125 27.828125 35.878906 C 29.382812 36.628906 31.363281 34.933594 30.453125 33.34375 C 26.777344 25.6875 31.449219 16.921875 35.59375 10.492188 C 35.992188 9.882812 36.386719 9.097656 37.148438 10.214844 C 40.25 14.789062 42.820312 19.605469 43.679688 25.152344 C 44.089844 27.808594 43.878906 30.425781 42.667969 32.894531 C 42.210938 33.824219 41.933594 34.78125 42.792969 35.628906 C 43.363281 36.191406 44.117188 36.257812 44.828125 35.984375 C 45.984375 35.542969 46.003906 34.546875 45.964844 33.507812 C 45.773438 28.683594 48.628906 25.390625 51.675781 22.199219 C 52.34375 21.496094 52.703125 21.980469 52.933594 22.628906 C 54.445312 26.96875 55.933594 31.3125 53.394531 35.800781 C 52.878906 36.707031 52.972656 37.585938 53.824219 38.285156 C 54.929688 39.191406 55.601562 38.949219 55.894531 37.53125 C 56.824219 33.023438 62.21875 28.933594 66.714844 29.289062 L 67.621094 29.449219 C 68.128906 34.671875 68.332031 39.332031 64.890625 43.136719 C 63.714844 44.203125 62.226562 45.75 60.871094 44.921875 C 59.828125 44.289062 61.015625 42.402344 61.4375 41.136719 C 62.085938 39.191406 63.089844 37.402344 63.972656 35.496094 C 61.824219 36.394531 60.519531 38.179688 59.292969 40.039062 C 57.902344 42.941406 56.695312 44.863281 53.175781 43.625 C 42.09375 39.972656 30.425781 39.773438 19.308594 43.441406 C 15.652344 44.539062 14.511719 44.078125 12.820312 40.6875 C 12.066406 39.179688 11.054688 37.910156 9.824219 36.785156 C 9.242188 36.25 8.640625 35.808594 7.558594 35.648438 " clip-rule="nonzero"/></clipPath><clipPath id="c951b14adf"><path d="M 15.988281 43.726562 L 55.832031 43.726562 L 55.832031 51.699219 L 15.988281 51.699219 Z M 15.988281 43.726562 " clip-rule="nonzero"/></clipPath><clipPath id="8cbb22c6f8"><path d="M 36.925781 43.824219 C 36.652344 43.824219 36.382812 43.824219 36.117188 43.832031 C 35.851562 43.824219 35.59375 43.824219 35.335938 43.824219 C 29.238281 43.824219 23.53125 44.75 17.808594 46.675781 C 16.300781 47.210938 15.6875 48.28125 16.128906 49.960938 C 16.46875 51.234375 17.261719 51.617188 18.207031 51.617188 C 19.394531 51.617188 20.816406 51.003906 21.878906 50.777344 C 26.40625 49.535156 31.066406 48.933594 35.726562 48.933594 C 41.207031 48.933594 46.679688 49.765625 51.953125 51.367188 C 52.390625 51.492188 52.800781 51.546875 53.183594 51.546875 C 54.683594 51.546875 55.742188 50.660156 55.800781 49.230469 C 55.878906 47.488281 54.664062 46.839844 53.257812 46.417969 C 47.863281 44.789062 42.371094 43.820312 36.925781 43.820312 Z M 36.925781 43.824219 " clip-rule="nonzero"/></clipPath><clipPath id="134c84d859"><path d="M 57.351562 21.71875 L 62.285156 21.71875 L 62.285156 29.308594 L 57.351562 29.308594 Z M 57.351562 21.71875 " clip-rule="nonzero"/></clipPath><clipPath id="f9f8cd69a6"><path d="M 62.207031 24.160156 C 62.167969 25.972656 61.949219 27.445312 60.59375 28.464844 C 59.085938 29.839844 57.660156 28.941406 57.53125 27.042969 C 57.402344 25.457031 59.515625 22.421875 61.042969 21.886719 L 61.914062 21.941406 C 62.113281 23.109375 62.160156 23.765625 62.207031 24.160156 " clip-rule="nonzero"/></clipPath><clipPath id="201a23ce67"><path d="M 10.484375 21.71875 L 15.226562 21.71875 L 15.226562 29.308594 L 10.484375 29.308594 Z M 10.484375 21.71875 " clip-rule="nonzero"/></clipPath><clipPath id="db5ad94009"><path d="M 10.539062 24.109375 C 10.816406 23.355469 10.328125 22.132812 11.121094 21.820312 C 11.875 21.523438 12.546875 22.535156 13.148438 23.097656 C 14.378906 24.242188 15.402344 25.53125 15.152344 27.359375 C 14.90625 29.136719 13.664062 29.632812 12.21875 28.5625 C 10.710938 27.453125 10.652344 25.792969 10.539062 24.113281 " clip-rule="nonzero"/></clipPath><clipPath id="f31e3c342d"><path d="M 24.335938 16.785156 L 27.371094 16.785156 L 27.371094 21.71875 L 24.335938 21.71875 Z M 24.335938 16.785156 " clip-rule="nonzero"/></clipPath><clipPath id="f9638708e3"><path d="M 27.234375 19.691406 C 27.042969 20.605469 26.964844 21.6875 25.871094 21.597656 C 24.710938 21.496094 24.339844 20.402344 24.378906 19.371094 C 24.410156 18.425781 24.558594 16.785156 25.332031 16.863281 C 26.605469 16.996094 26.855469 18.582031 27.242188 19.699219 " clip-rule="nonzero"/></clipPath><clipPath id="16987a51ed"><path d="M 45.398438 16.785156 L 48.433594 16.785156 L 48.433594 21.71875 L 45.398438 21.71875 Z M 45.398438 16.785156 " clip-rule="nonzero"/></clipPath><clipPath id="9ae19234b8"><path d="M 45.523438 19.777344 C 45.820312 18.542969 46.136719 16.957031 47.421875 16.84375 C 48.265625 16.773438 48.3125 18.410156 48.359375 19.363281 C 48.410156 20.421875 48.054688 21.492188 46.878906 21.601562 C 45.746094 21.710938 45.675781 20.632812 45.515625 19.777344 " clip-rule="nonzero"/></clipPath></defs><g clip-path="url(#74cea9ef2b)"><g clip-path="url(#05ae660bda)"><path fill="#7a00e4" d="M 0.617188 6.347656 L 71.203125 6.347656 L 71.203125 54.921875 L 0.617188 54.921875 Z M 0.617188 6.347656 " fill-opacity="1" fill-rule="nonzero"/></g></g><g clip-path="url(#c951b14adf)"><g clip-path="url(#8cbb22c6f8)"><path fill="#7a00e4" d="M 0.617188 6.347656 L 71.203125 6.347656 L 71.203125 54.921875 L 0.617188 54.921875 Z M 0.617188 6.347656 " fill-opacity="1" fill-rule="nonzero"/></g></g><g clip-path="url(#134c84d859)"><g clip-path="url(#f9f8cd69a6)"><path fill="#7a00e4" d="M 0.617188 6.347656 L 71.203125 6.347656 L 71.203125 54.921875 L 0.617188 54.921875 Z M 0.617188 6.347656 " fill-opacity="1" fill-rule="nonzero"/></g></g><g clip-path="url(#201a23ce67)"><g clip-path="url(#db5ad94009)"><path fill="#7a00e4" d="M 0.617188 6.347656 L 71.203125 6.347656 L 71.203125 54.921875 L 0.617188 54.921875 Z M 0.617188 6.347656 " fill-opacity="1" fill-rule="nonzero"/></g></g><g clip-path="url(#f31e3c342d)"><g clip-path="url(#f9638708e3)"><path fill="#7a00e4" d="M 0.617188 6.347656 L 71.203125 6.347656 L 71.203125 54.921875 L 0.617188 54.921875 Z M 0.617188 6.347656 " fill-opacity="1" fill-rule="nonzero"/></g></g><g clip-path="url(#16987a51ed)"><g clip-path="url(#9ae19234b8)"><path fill="#7a00e4" d="M 0.617188 6.347656 L 71.203125 6.347656 L 71.203125 54.921875 L 0.617188 54.921875 Z M 0.617188 6.347656 " fill-opacity="1" fill-rule="nonzero"/></g></g><g fill="#7a00e4" fill-opacity="1"><g transform="translate(78.864871, 32.932214)"><g><path d="M 8.5625 0 C 8.519531 -0.144531 8.476562 -0.28125 8.4375 -0.40625 C 8.394531 -0.539062 8.359375 -0.703125 8.328125 -0.890625 C 8.296875 -1.078125 8.273438 -1.316406 8.265625 -1.609375 C 8.253906 -1.910156 8.25 -2.285156 8.25 -2.734375 L 8.25 -6.21875 C 8.25 -7.257812 8.066406 -7.988281 7.703125 -8.40625 C 7.347656 -8.832031 6.769531 -9.046875 5.96875 -9.046875 L 4.765625 -9.046875 L 4.765625 0 L 1.265625 0 L 1.265625 -22.21875 L 6.53125 -22.21875 C 8.351562 -22.21875 9.671875 -21.789062 10.484375 -20.9375 C 11.296875 -20.09375 11.703125 -18.816406 11.703125 -17.109375 L 11.703125 -15.359375 C 11.703125 -13.078125 10.941406 -11.578125 9.421875 -10.859375 C 10.316406 -10.492188 10.925781 -9.90625 11.25 -9.09375 C 11.570312 -8.28125 11.734375 -7.289062 11.734375 -6.125 L 11.734375 -2.703125 C 11.734375 -2.148438 11.753906 -1.664062 11.796875 -1.25 C 11.847656 -0.84375 11.957031 -0.425781 12.125 0 Z M 4.765625 -19.046875 L 4.765625 -12.21875 L 6.125 -12.21875 C 6.78125 -12.21875 7.289062 -12.382812 7.65625 -12.71875 C 8.03125 -13.0625 8.21875 -13.675781 8.21875 -14.5625 L 8.21875 -16.75 C 8.21875 -17.5625 8.070312 -18.144531 7.78125 -18.5 C 7.5 -18.863281 7.050781 -19.046875 6.4375 -19.046875 Z M 4.765625 -19.046875 "/></g></g></g><g fill="#7a00e4" fill-opacity="1"><g transform="translate(91.621989, 32.932214)"><g><path d="M 4.46875 -5.109375 C 4.46875 -4.304688 4.628906 -3.738281 4.953125 -3.40625 C 5.285156 -3.082031 5.726562 -2.921875 6.28125 -2.921875 C 6.832031 -2.921875 7.269531 -3.082031 7.59375 -3.40625 C 7.925781 -3.738281 8.09375 -4.304688 8.09375 -5.109375 L 8.09375 -17.109375 C 8.09375 -17.910156 7.925781 -18.472656 7.59375 -18.796875 C 7.269531 -19.128906 6.832031 -19.296875 6.28125 -19.296875 C 5.726562 -19.296875 5.285156 -19.128906 4.953125 -18.796875 C 4.628906 -18.472656 4.46875 -17.910156 4.46875 -17.109375 Z M 0.984375 -16.875 C 0.984375 -18.675781 1.4375 -20.054688 2.34375 -21.015625 C 3.257812 -21.984375 4.570312 -22.46875 6.28125 -22.46875 C 8 -22.46875 9.3125 -21.984375 10.21875 -21.015625 C 11.125 -20.054688 11.578125 -18.675781 11.578125 -16.875 L 11.578125 -5.328125 C 11.578125 -3.535156 11.125 -2.15625 10.21875 -1.1875 C 9.3125 -0.226562 8 0.25 6.28125 0.25 C 4.570312 0.25 3.257812 -0.226562 2.34375 -1.1875 C 1.4375 -2.15625 0.984375 -3.535156 0.984375 -5.328125 Z M 0.984375 -16.875 "/></g></g></g><g fill="#7a00e4" fill-opacity="1"><g transform="translate(104.188704, 32.932214)"><g><path d="M 4.53125 -7.359375 L 0.125 -22.21875 L 3.78125 -22.21875 L 6.4375 -12.09375 L 9.109375 -22.21875 L 12.4375 -22.21875 L 8.03125 -7.359375 L 8.03125 0 L 4.53125 0 Z M 4.53125 -7.359375 "/></g></g></g><g fill="#7a00e4" fill-opacity="1"><g transform="translate(116.755419, 32.932214)"><g><path d="M 12.5625 0 L 9.046875 0 L 8.4375 -4.03125 L 4.15625 -4.03125 L 3.546875 0 L 0.34375 0 L 3.90625 -22.21875 L 9.015625 -22.21875 Z M 4.59375 -7.046875 L 7.96875 -7.046875 L 6.28125 -18.28125 Z M 4.59375 -7.046875 "/></g></g></g><g fill="#7a00e4" fill-opacity="1"><g transform="translate(129.671214, 32.932214)"><g><path d="M 1.265625 -22.21875 L 4.765625 -22.21875 L 4.765625 -3.171875 L 10.5 -3.171875 L 10.5 0 L 1.265625 0 Z M 1.265625 -22.21875 "/></g></g></g><g fill="#7a00e4" fill-opacity="1"><g transform="translate(140.492555, 32.932214)"><g><path d="M 0.828125 -16.875 C 0.828125 -18.675781 1.253906 -20.054688 2.109375 -21.015625 C 2.960938 -21.984375 4.25 -22.46875 5.96875 -22.46875 C 7.675781 -22.46875 8.957031 -21.984375 9.8125 -21.015625 C 10.675781 -20.054688 11.109375 -18.675781 11.109375 -16.875 L 11.109375 -16.03125 L 7.8125 -16.03125 L 7.8125 -17.109375 C 7.8125 -17.910156 7.65625 -18.472656 7.34375 -18.796875 C 7.039062 -19.128906 6.613281 -19.296875 6.0625 -19.296875 C 5.507812 -19.296875 5.078125 -19.128906 4.765625 -18.796875 C 4.460938 -18.472656 4.3125 -17.910156 4.3125 -17.109375 C 4.3125 -16.347656 4.476562 -15.675781 4.8125 -15.09375 C 5.15625 -14.507812 5.582031 -13.957031 6.09375 -13.4375 C 6.601562 -12.914062 7.144531 -12.394531 7.71875 -11.875 C 8.300781 -11.363281 8.847656 -10.800781 9.359375 -10.1875 C 9.867188 -9.570312 10.289062 -8.875 10.625 -8.09375 C 10.96875 -7.3125 11.140625 -6.390625 11.140625 -5.328125 C 11.140625 -3.535156 10.695312 -2.15625 9.8125 -1.1875 C 8.9375 -0.226562 7.644531 0.25 5.9375 0.25 C 4.21875 0.25 2.921875 -0.226562 2.046875 -1.1875 C 1.171875 -2.15625 0.734375 -3.535156 0.734375 -5.328125 L 0.734375 -6.859375 L 4.03125 -6.859375 L 4.03125 -5.109375 C 4.03125 -4.304688 4.191406 -3.742188 4.515625 -3.421875 C 4.847656 -3.109375 5.289062 -2.953125 5.84375 -2.953125 C 6.394531 -2.953125 6.832031 -3.109375 7.15625 -3.421875 C 7.476562 -3.742188 7.640625 -4.304688 7.640625 -5.109375 C 7.640625 -5.867188 7.46875 -6.539062 7.125 -7.125 C 6.789062 -7.707031 6.367188 -8.253906 5.859375 -8.765625 C 5.359375 -9.285156 4.816406 -9.804688 4.234375 -10.328125 C 3.648438 -10.847656 3.101562 -11.414062 2.59375 -12.03125 C 2.09375 -12.644531 1.671875 -13.34375 1.328125 -14.125 C 0.992188 -14.90625 0.828125 -15.820312 0.828125 -16.875 Z M 0.828125 -16.875 "/></g></g></g><g fill="#7a00e4" fill-opacity="1"><g transform="translate(152.361123, 32.932214)"><g><path d="M 1.265625 -22.21875 L 4.765625 -22.21875 L 4.765625 -3.171875 L 10.5 -3.171875 L 10.5 0 L 1.265625 0 Z M 1.265625 -22.21875 "/></g></g></g><g fill="#7a00e4" fill-opacity="1"><g transform="translate(163.182465, 32.932214)"><g><path d="M 1.265625 -22.21875 L 4.765625 -22.21875 L 4.765625 0 L 1.265625 0 Z M 1.265625 -22.21875 "/></g></g></g><g fill="#7a00e4" fill-opacity="1"><g transform="translate(169.211951, 32.932214)"><g><path d="M 1.265625 -22.21875 L 6.796875 -22.21875 C 8.546875 -22.21875 9.847656 -21.75 10.703125 -20.8125 C 11.566406 -19.882812 12 -18.519531 12 -16.71875 L 12 -5.484375 C 12 -3.691406 11.566406 -2.328125 10.703125 -1.390625 C 9.847656 -0.460938 8.546875 0 6.796875 0 L 1.265625 0 Z M 4.765625 -19.046875 L 4.765625 -3.171875 L 6.734375 -3.171875 C 7.273438 -3.171875 7.703125 -3.328125 8.015625 -3.640625 C 8.335938 -3.960938 8.5 -4.523438 8.5 -5.328125 L 8.5 -16.875 C 8.5 -17.6875 8.335938 -18.25 8.015625 -18.5625 C 7.703125 -18.882812 7.273438 -19.046875 6.734375 -19.046875 Z M 4.765625 -19.046875 "/></g></g></g><g fill="#7a00e4" fill-opacity="1"><g transform="translate(182.159473, 32.932214)"><g><path d="M 4.765625 -12.859375 L 9.546875 -12.859375 L 9.546875 -9.671875 L 4.765625 -9.671875 L 4.765625 -3.171875 L 10.796875 -3.171875 L 10.796875 0 L 1.265625 0 L 1.265625 -22.21875 L 10.796875 -22.21875 L 10.796875 -19.046875 L 4.765625 -19.046875 Z M 4.765625 -12.859375 "/></g></g></g><g fill="#7a00e4" fill-opacity="1"><g transform="translate(193.837637, 32.932214)"><g><path d="M 8.5625 0 C 8.519531 -0.144531 8.476562 -0.28125 8.4375 -0.40625 C 8.394531 -0.539062 8.359375 -0.703125 8.328125 -0.890625 C 8.296875 -1.078125 8.273438 -1.316406 8.265625 -1.609375 C 8.253906 -1.910156 8.25 -2.285156 8.25 -2.734375 L 8.25 -6.21875 C 8.25 -7.257812 8.066406 -7.988281 7.703125 -8.40625 C 7.347656 -8.832031 6.769531 -9.046875 5.96875 -9.046875 L 4.765625 -9.046875 L 4.765625 0 L 1.265625 0 L 1.265625 -22.21875 L 6.53125 -22.21875 C 8.351562 -22.21875 9.671875 -21.789062 10.484375 -20.9375 C 11.296875 -20.09375 11.703125 -18.816406 11.703125 -17.109375 L 11.703125 -15.359375 C 11.703125 -13.078125 10.941406 -11.578125 9.421875 -10.859375 C 10.316406 -10.492188 10.925781 -9.90625 11.25 -9.09375 C 11.570312 -8.28125 11.734375 -7.289062 11.734375 -6.125 L 11.734375 -2.703125 C 11.734375 -2.148438 11.753906 -1.664062 11.796875 -1.25 C 11.847656 -0.84375 11.957031 -0.425781 12.125 0 Z M 4.765625 -19.046875 L 4.765625 -12.21875 L 6.125 -12.21875 C 6.78125 -12.21875 7.289062 -12.382812 7.65625 -12.71875 C 8.03125 -13.0625 8.21875 -13.675781 8.21875 -14.5625 L 8.21875 -16.75 C 8.21875 -17.5625 8.070312 -18.144531 7.78125 -18.5 C 7.5 -18.863281 7.050781 -19.046875 6.4375 -19.046875 Z M 4.765625 -19.046875 "/></g></g></g><g fill="#ffb200" fill-opacity="1"><g transform="translate(79.283343, 50.459851)"><g><path d="M 2.90625 -10.25 L 2.90625 -1.234375 L 7.109375 -1.234375 L 6.953125 0 L 1.484375 0 L 1.484375 -10.25 Z M 2.90625 -10.25 "/></g></g></g><g fill="#ffb200" fill-opacity="1"><g transform="translate(86.693095, 50.459851)"><g><path d="M 2.78125 -7.84375 L 2.78125 0 L 1.40625 0 L 1.40625 -7.84375 Z M 2.09375 -11.609375 C 2.375 -11.609375 2.601562 -11.515625 2.78125 -11.328125 C 2.957031 -11.148438 3.046875 -10.929688 3.046875 -10.671875 C 3.046875 -10.398438 2.957031 -10.175781 2.78125 -10 C 2.601562 -9.832031 2.375 -9.75 2.09375 -9.75 C 1.8125 -9.75 1.582031 -9.832031 1.40625 -10 C 1.226562 -10.175781 1.140625 -10.398438 1.140625 -10.671875 C 1.140625 -10.929688 1.226562 -11.148438 1.40625 -11.328125 C 1.582031 -11.515625 1.8125 -11.609375 2.09375 -11.609375 Z M 2.09375 -11.609375 "/></g></g></g><g fill="#ffb200" fill-opacity="1"><g transform="translate(90.888981, 50.459851)"><g><path d="M 7.734375 -7.484375 C 7.429688 -7.378906 7.101562 -7.3125 6.75 -7.28125 C 6.394531 -7.257812 5.957031 -7.25 5.4375 -7.25 C 6.363281 -6.832031 6.828125 -6.171875 6.828125 -5.265625 C 6.828125 -4.484375 6.554688 -3.84375 6.015625 -3.34375 C 5.484375 -2.851562 4.757812 -2.609375 3.84375 -2.609375 C 3.476562 -2.609375 3.144531 -2.65625 2.84375 -2.75 C 2.71875 -2.675781 2.617188 -2.570312 2.546875 -2.4375 C 2.484375 -2.300781 2.453125 -2.160156 2.453125 -2.015625 C 2.453125 -1.597656 2.796875 -1.390625 3.484375 -1.390625 L 4.734375 -1.390625 C 5.253906 -1.390625 5.71875 -1.289062 6.125 -1.09375 C 6.53125 -0.90625 6.84375 -0.648438 7.0625 -0.328125 C 7.289062 -0.00390625 7.40625 0.363281 7.40625 0.78125 C 7.40625 1.550781 7.09375 2.140625 6.46875 2.546875 C 5.84375 2.960938 4.929688 3.171875 3.734375 3.171875 C 2.890625 3.171875 2.222656 3.082031 1.734375 2.90625 C 1.242188 2.726562 0.894531 2.46875 0.6875 2.125 C 0.476562 1.78125 0.375 1.332031 0.375 0.78125 L 1.609375 0.78125 C 1.609375 1.101562 1.664062 1.351562 1.78125 1.53125 C 1.90625 1.71875 2.117188 1.859375 2.421875 1.953125 C 2.734375 2.046875 3.171875 2.09375 3.734375 2.09375 C 4.554688 2.09375 5.144531 1.988281 5.5 1.78125 C 5.851562 1.582031 6.03125 1.28125 6.03125 0.875 C 6.03125 0.507812 5.890625 0.234375 5.609375 0.046875 C 5.328125 -0.140625 4.941406 -0.234375 4.453125 -0.234375 L 3.21875 -0.234375 C 2.550781 -0.234375 2.046875 -0.375 1.703125 -0.65625 C 1.359375 -0.9375 1.1875 -1.289062 1.1875 -1.71875 C 1.1875 -1.976562 1.257812 -2.226562 1.40625 -2.46875 C 1.5625 -2.707031 1.773438 -2.921875 2.046875 -3.109375 C 1.597656 -3.347656 1.265625 -3.640625 1.046875 -3.984375 C 0.835938 -4.335938 0.734375 -4.769531 0.734375 -5.28125 C 0.734375 -5.800781 0.863281 -6.269531 1.125 -6.6875 C 1.382812 -7.101562 1.742188 -7.425781 2.203125 -7.65625 C 2.671875 -7.894531 3.1875 -8.015625 3.75 -8.015625 C 4.363281 -8.003906 4.878906 -8.023438 5.296875 -8.078125 C 5.710938 -8.140625 6.054688 -8.21875 6.328125 -8.3125 C 6.597656 -8.40625 6.929688 -8.539062 7.328125 -8.71875 Z M 3.75 -7.03125 C 3.226562 -7.03125 2.828125 -6.867188 2.546875 -6.546875 C 2.265625 -6.222656 2.125 -5.800781 2.125 -5.28125 C 2.125 -4.75 2.265625 -4.320312 2.546875 -4 C 2.835938 -3.675781 3.25 -3.515625 3.78125 -3.515625 C 4.3125 -3.515625 4.71875 -3.671875 5 -3.984375 C 5.28125 -4.296875 5.421875 -4.734375 5.421875 -5.296875 C 5.421875 -6.453125 4.863281 -7.03125 3.75 -7.03125 Z M 3.75 -7.03125 "/></g></g></g><g fill="#ffb200" fill-opacity="1"><g transform="translate(98.626073, 50.459851)"><g><path d="M 5.109375 -8.015625 C 5.816406 -8.015625 6.367188 -7.800781 6.765625 -7.375 C 7.171875 -6.945312 7.375 -6.363281 7.375 -5.625 L 7.375 0 L 6.015625 0 L 6.015625 -5.421875 C 6.015625 -5.984375 5.90625 -6.378906 5.6875 -6.609375 C 5.476562 -6.835938 5.171875 -6.953125 4.765625 -6.953125 C 4.359375 -6.953125 3.992188 -6.832031 3.671875 -6.59375 C 3.359375 -6.351562 3.0625 -6.015625 2.78125 -5.578125 L 2.78125 0 L 1.40625 0 L 1.40625 -10.984375 L 2.78125 -11.125 L 2.78125 -6.75 C 3.394531 -7.59375 4.171875 -8.015625 5.109375 -8.015625 Z M 5.109375 -8.015625 "/></g></g></g><g fill="#ffb200" fill-opacity="1"><g transform="translate(107.345174, 50.459851)"><g><path d="M 5.375 -0.359375 C 4.851562 -0.00390625 4.265625 0.171875 3.609375 0.171875 C 2.953125 0.171875 2.4375 -0.015625 2.0625 -0.390625 C 1.6875 -0.773438 1.5 -1.328125 1.5 -2.046875 L 1.5 -6.78125 L 0.140625 -6.78125 L 0.140625 -7.84375 L 1.5 -7.84375 L 1.5 -9.609375 L 2.875 -9.765625 L 2.875 -7.84375 L 4.734375 -7.84375 L 4.578125 -6.78125 L 2.875 -6.78125 L 2.875 -2.109375 C 2.875 -1.703125 2.941406 -1.40625 3.078125 -1.21875 C 3.222656 -1.039062 3.46875 -0.953125 3.8125 -0.953125 C 4.113281 -0.953125 4.457031 -1.054688 4.84375 -1.265625 Z M 5.375 -0.359375 "/></g></g></g><g fill="#ffb200" fill-opacity="1"><g transform="translate(112.716494, 50.459851)"><g/></g></g><g fill="#ffb200" fill-opacity="1"><g transform="translate(116.659428, 50.459851)"><g><path d="M 4.5 -10.421875 C 5.03125 -10.421875 5.5 -10.320312 5.90625 -10.125 C 6.320312 -9.9375 6.644531 -9.671875 6.875 -9.328125 C 7.101562 -8.984375 7.21875 -8.597656 7.21875 -8.171875 C 7.21875 -7.578125 7.03125 -7.070312 6.65625 -6.65625 C 6.28125 -6.238281 5.765625 -5.832031 5.109375 -5.4375 L 7.734375 -2.96875 C 8.128906 -3.78125 8.425781 -4.617188 8.625 -5.484375 L 9.90625 -5.109375 C 9.5625 -3.960938 9.117188 -2.988281 8.578125 -2.1875 L 10.25 -0.625 L 9.265625 0.171875 L 7.828125 -1.21875 C 7.398438 -0.75 6.914062 -0.398438 6.375 -0.171875 C 5.84375 0.0546875 5.226562 0.171875 4.53125 0.171875 C 3.882812 0.171875 3.304688 0.0625 2.796875 -0.15625 C 2.296875 -0.382812 1.90625 -0.707031 1.625 -1.125 C 1.34375 -1.550781 1.203125 -2.046875 1.203125 -2.609375 C 1.203125 -3.222656 1.375 -3.757812 1.71875 -4.21875 C 2.070312 -4.675781 2.585938 -5.125 3.265625 -5.5625 C 2.773438 -6.039062 2.410156 -6.46875 2.171875 -6.84375 C 1.941406 -7.21875 1.828125 -7.644531 1.828125 -8.125 C 1.828125 -8.800781 2.0625 -9.351562 2.53125 -9.78125 C 3.007812 -10.207031 3.664062 -10.421875 4.5 -10.421875 Z M 4.5 -9.421875 C 4.082031 -9.421875 3.753906 -9.300781 3.515625 -9.0625 C 3.285156 -8.820312 3.171875 -8.515625 3.171875 -8.140625 C 3.171875 -7.773438 3.265625 -7.453125 3.453125 -7.171875 C 3.640625 -6.890625 3.9375 -6.554688 4.34375 -6.171875 C 4.851562 -6.484375 5.234375 -6.789062 5.484375 -7.09375 C 5.742188 -7.394531 5.875 -7.726562 5.875 -8.09375 C 5.875 -8.507812 5.75 -8.832031 5.5 -9.0625 C 5.25 -9.300781 4.914062 -9.421875 4.5 -9.421875 Z M 4.0625 -4.8125 C 3.5625 -4.488281 3.191406 -4.15625 2.953125 -3.8125 C 2.722656 -3.46875 2.609375 -3.078125 2.609375 -2.640625 C 2.609375 -2.097656 2.796875 -1.671875 3.171875 -1.359375 C 3.554688 -1.054688 4.0625 -0.90625 4.6875 -0.90625 C 5.15625 -0.90625 5.578125 -0.992188 5.953125 -1.171875 C 6.328125 -1.347656 6.6875 -1.617188 7.03125 -1.984375 Z M 4.0625 -4.8125 "/></g></g></g><g fill="#ffb200" fill-opacity="1"><g transform="translate(127.506232, 50.459851)"><g/></g></g><g fill="#ffb200" fill-opacity="1"><g transform="translate(131.449166, 50.459851)"><g><path d="M 4.015625 -10.421875 C 4.703125 -10.421875 5.285156 -10.320312 5.765625 -10.125 C 6.253906 -9.9375 6.726562 -9.640625 7.1875 -9.234375 L 6.40625 -8.375 C 6.019531 -8.675781 5.640625 -8.898438 5.265625 -9.046875 C 4.898438 -9.191406 4.503906 -9.265625 4.078125 -9.265625 C 3.535156 -9.265625 3.09375 -9.140625 2.75 -8.890625 C 2.40625 -8.640625 2.234375 -8.28125 2.234375 -7.8125 C 2.234375 -7.507812 2.289062 -7.253906 2.40625 -7.046875 C 2.53125 -6.847656 2.753906 -6.664062 3.078125 -6.5 C 3.398438 -6.332031 3.867188 -6.15625 4.484375 -5.96875 C 5.117188 -5.769531 5.648438 -5.554688 6.078125 -5.328125 C 6.503906 -5.097656 6.847656 -4.78125 7.109375 -4.375 C 7.378906 -3.976562 7.515625 -3.472656 7.515625 -2.859375 C 7.515625 -2.265625 7.367188 -1.738281 7.078125 -1.28125 C 6.785156 -0.820312 6.363281 -0.460938 5.8125 -0.203125 C 5.257812 0.046875 4.609375 0.171875 3.859375 0.171875 C 2.429688 0.171875 1.269531 -0.265625 0.375 -1.140625 L 1.140625 -2.015625 C 1.554688 -1.671875 1.976562 -1.410156 2.40625 -1.234375 C 2.832031 -1.066406 3.3125 -0.984375 3.84375 -0.984375 C 4.476562 -0.984375 5.003906 -1.140625 5.421875 -1.453125 C 5.835938 -1.765625 6.046875 -2.21875 6.046875 -2.8125 C 6.046875 -3.144531 5.976562 -3.421875 5.84375 -3.640625 C 5.71875 -3.867188 5.5 -4.070312 5.1875 -4.25 C 4.875 -4.425781 4.421875 -4.609375 3.828125 -4.796875 C 2.773438 -5.109375 2.003906 -5.488281 1.515625 -5.9375 C 1.023438 -6.382812 0.78125 -6.988281 0.78125 -7.75 C 0.78125 -8.257812 0.914062 -8.71875 1.1875 -9.125 C 1.46875 -9.539062 1.851562 -9.859375 2.34375 -10.078125 C 2.832031 -10.304688 3.390625 -10.421875 4.015625 -10.421875 Z M 4.015625 -10.421875 "/></g></g></g><g fill="#ffb200" fill-opacity="1"><g transform="translate(139.558234, 50.459851)"><g><path d="M 2.78125 -7.84375 L 2.78125 0 L 1.40625 0 L 1.40625 -7.84375 Z M 2.09375 -11.609375 C 2.375 -11.609375 2.601562 -11.515625 2.78125 -11.328125 C 2.957031 -11.148438 3.046875 -10.929688 3.046875 -10.671875 C 3.046875 -10.398438 2.957031 -10.175781 2.78125 -10 C 2.601562 -9.832031 2.375 -9.75 2.09375 -9.75 C 1.8125 -9.75 1.582031 -9.832031 1.40625 -10 C 1.226562 -10.175781 1.140625 -10.398438 1.140625 -10.671875 C 1.140625 -10.929688 1.226562 -11.148438 1.40625 -11.328125 C 1.582031 -11.515625 1.8125 -11.609375 2.09375 -11.609375 Z M 2.09375 -11.609375 "/></g></g></g><g fill="#ffb200" fill-opacity="1"><g transform="translate(143.75412, 50.459851)"><g><path d="M 9.28125 -8.015625 C 9.925781 -8.015625 10.441406 -7.796875 10.828125 -7.359375 C 11.210938 -6.929688 11.40625 -6.351562 11.40625 -5.625 L 11.40625 0 L 10.046875 0 L 10.046875 -5.421875 C 10.046875 -6.441406 9.675781 -6.953125 8.9375 -6.953125 C 8.550781 -6.953125 8.222656 -6.835938 7.953125 -6.609375 C 7.691406 -6.390625 7.40625 -6.039062 7.09375 -5.5625 L 7.09375 0 L 5.734375 0 L 5.734375 -5.421875 C 5.734375 -6.441406 5.363281 -6.953125 4.625 -6.953125 C 4.226562 -6.953125 3.894531 -6.835938 3.625 -6.609375 C 3.363281 -6.378906 3.082031 -6.03125 2.78125 -5.5625 L 2.78125 0 L 1.40625 0 L 1.40625 -7.84375 L 2.59375 -7.84375 L 2.703125 -6.6875 C 3.285156 -7.570312 4.039062 -8.015625 4.96875 -8.015625 C 5.457031 -8.015625 5.867188 -7.890625 6.203125 -7.640625 C 6.546875 -7.398438 6.796875 -7.054688 6.953125 -6.609375 C 7.253906 -7.054688 7.585938 -7.398438 7.953125 -7.640625 C 8.328125 -7.890625 8.769531 -8.015625 9.28125 -8.015625 Z M 9.28125 -8.015625 "/></g></g></g><g fill="#ffb200" fill-opacity="1"><g transform="translate(156.505438, 50.459851)"><g><path d="M 5.015625 -8.015625 C 6.015625 -8.015625 6.742188 -7.65625 7.203125 -6.9375 C 7.671875 -6.226562 7.90625 -5.222656 7.90625 -3.921875 C 7.90625 -2.691406 7.640625 -1.703125 7.109375 -0.953125 C 6.578125 -0.203125 5.816406 0.171875 4.828125 0.171875 C 3.960938 0.171875 3.28125 -0.125 2.78125 -0.71875 L 2.78125 3 L 1.40625 3.171875 L 1.40625 -7.84375 L 2.59375 -7.84375 L 2.6875 -6.78125 C 2.976562 -7.175781 3.328125 -7.476562 3.734375 -7.6875 C 4.140625 -7.90625 4.566406 -8.015625 5.015625 -8.015625 Z M 4.5 -0.9375 C 5.789062 -0.9375 6.4375 -1.929688 6.4375 -3.921875 C 6.4375 -5.929688 5.847656 -6.9375 4.671875 -6.9375 C 4.285156 -6.9375 3.929688 -6.820312 3.609375 -6.59375 C 3.296875 -6.363281 3.019531 -6.070312 2.78125 -5.71875 L 2.78125 -1.890625 C 2.976562 -1.578125 3.222656 -1.335938 3.515625 -1.171875 C 3.816406 -1.015625 4.144531 -0.9375 4.5 -0.9375 Z M 4.5 -0.9375 "/></g></g></g><g fill="#ffb200" fill-opacity="1"><g transform="translate(165.343575, 50.459851)"><g><path d="M 2.96875 0.171875 C 2.46875 0.171875 2.070312 0.0195312 1.78125 -0.28125 C 1.488281 -0.582031 1.34375 -1.003906 1.34375 -1.546875 L 1.34375 -11 L 2.703125 -11.15625 L 2.703125 -1.578125 C 2.703125 -1.359375 2.738281 -1.195312 2.8125 -1.09375 C 2.894531 -1 3.023438 -0.953125 3.203125 -0.953125 C 3.390625 -0.953125 3.554688 -0.984375 3.703125 -1.046875 L 4.0625 -0.09375 C 3.726562 0.0820312 3.363281 0.171875 2.96875 0.171875 Z M 2.96875 0.171875 "/></g></g></g><g fill="#ffb200" fill-opacity="1"><g transform="translate(169.703131, 50.459851)"><g><path d="M 7.328125 -4.15625 C 7.328125 -3.925781 7.316406 -3.691406 7.296875 -3.453125 L 2.3125 -3.453125 C 2.363281 -2.585938 2.578125 -1.953125 2.953125 -1.546875 C 3.335938 -1.140625 3.828125 -0.9375 4.421875 -0.9375 C 4.796875 -0.9375 5.140625 -0.988281 5.453125 -1.09375 C 5.773438 -1.207031 6.109375 -1.382812 6.453125 -1.625 L 7.046875 -0.796875 C 6.210938 -0.148438 5.300781 0.171875 4.3125 0.171875 C 3.21875 0.171875 2.363281 -0.179688 1.75 -0.890625 C 1.144531 -1.609375 0.84375 -2.59375 0.84375 -3.84375 C 0.84375 -4.65625 0.972656 -5.375 1.234375 -6 C 1.503906 -6.632812 1.882812 -7.128906 2.375 -7.484375 C 2.863281 -7.835938 3.441406 -8.015625 4.109375 -8.015625 C 5.148438 -8.015625 5.945312 -7.671875 6.5 -6.984375 C 7.050781 -6.304688 7.328125 -5.363281 7.328125 -4.15625 Z M 5.984375 -4.546875 C 5.984375 -5.328125 5.828125 -5.921875 5.515625 -6.328125 C 5.210938 -6.734375 4.753906 -6.9375 4.140625 -6.9375 C 3.015625 -6.9375 2.40625 -6.113281 2.3125 -4.46875 L 5.984375 -4.46875 Z M 5.984375 -4.546875 "/></g></g></g></svg>